{
  "accessors": [
    {
      "name": "hex_forest_Cylinder.506-Mesh_0_positions",
      "componentType": 5126,
      "count": 68,
      "min": [
        -1,
        0,
        -1.1547000408172607
      ],
      "max": [
        1,
        1,
        1.1547000408172607
      ],
      "type": "VEC3",
      "bufferView": 0,
      "byteOffset": 0
    },
    {
      "name": "hex_forest_Cylinder.506-Mesh_0_normals",
      "componentType": 5126,
      "count": 68,
      "min": [
        -1,
        -1,
        -0.866019070148468
      ],
      "max": [
        1,
        0.9885650873184204,
        0.866019070148468
      ],
      "type": "VEC3",
      "bufferView": 1,
      "byteOffset": 0
    },
    {
      "name": "hex_forest_Cylinder.506-Mesh_0_texcoords",
      "componentType": 5126,
      "count": 68,
      "min": [
        0.10018900036811829,
        0.3469510078430176
      ],
      "max": [
        0.8792179822921753,
        1
      ],
      "type": "VEC2",
      "bufferView": 2,
      "byteOffset": 0
    },
    {
      "name": "hex_forest_Cylinder.506-Mesh_0_indices",
      "componentType": 5123,
      "count": 168,
      "min": [
        0
      ],
      "max": [
        67
      ],
      "type": "SCALAR",
      "bufferView": 3,
      "byteOffset": 0
    }
  ],
  "asset": {
    "generator": "obj2gltf",
    "version": "2.0"
  },
  "buffers": [
    {
      "name": "hex_forest",
      "byteLength": 2512,
      "uri": "data:application/octet-stream;base64,"
    }
  ],
  "bufferViews": [
    {
      "name": "bufferView_0",
      "buffer": 0,
      "byteLength": 816,
      "byteOffset": 0,
      "byteStride": 12,
      "target": 34962
    },
    {
      "name": "bufferView_1",
      "buffer": 0,
      "byteLength": 816,
      "byteOffset": 816,
      "byteStride": 12,
      "target": 34962
    },
    {
      "name": "bufferView_2",
      "buffer": 0,
      "byteLength": 544,
      "byteOffset": 1632,
      "byteStride": 8,
      "target": 34962
    },
    {
      "name": "bufferView_3",
      "buffer": 0,
      "byteLength": 336,
      "byteOffset": 2176,
      "target": 34963
    }
  ],
  "materials": [
    {
      "name": "Green",
      "pbrMetallicRoughness": {
        "baseColorFactor": [
          0.065342,
          0.500543,
          0.265645,
          1
        ],
        "metallicFactor": 0,
        "roughnessFactor": 0.676000006
      },
      "emissiveFactor": [
        0,
        0,
        0
      ],
      "alphaMode": "OPAQUE",
      "doubleSided": false
    }
  ],
  "meshes": [
    {
      "name": "hex_forest_Cylinder.506-Mesh",
      "primitives": [
        {
          "attributes": {
            "POSITION": 0,
            "NORMAL": 1,
            "TEXCOORD_0": 2
          },
          "indices": 3,
          "material": 0,
          "mode": 4
        }
      ]
    }
  ],
  "nodes": [
    {
      "name": "hex_forest_Cylinder.506",
      "mesh": 0
    }
  ],
  "scene": 0,
  "scenes": [
    {
      "nodes": [
        0
      ]
    }
  ]
}
